<svg width="17" height="17" viewBox="0 0 17 17" fill="none" xmlns="http://www.w3.org/2000/svg">
<path d="M8.06433 0.862488C10.2206 0.862488 10.4862 0.878113 11.33 0.909363C12.1581 0.940613 12.7362 1.08124 13.2518 1.28436C13.7831 1.48749 14.2206 1.75311 14.6581 2.19061C15.0956 2.62811 15.3612 3.06561 15.5643 3.59686C15.7675 4.11249 15.9081 4.69061 15.9393 5.51874C15.9706 6.36249 15.9862 6.62811 15.9862 8.78436C15.9862 10.9406 15.9706 11.2062 15.9393 12.05C15.9081 12.8781 15.7675 13.4562 15.5643 13.9719C15.3612 14.5031 15.0956 14.9406 14.6581 15.3781C14.2206 15.8156 13.7831 16.0812 13.2518 16.2844C12.7362 16.4875 12.1581 16.6281 11.33 16.6594C10.4862 16.6906 10.2206 16.7062 8.06433 16.7062C5.90808 16.7062 5.64246 16.6906 4.79871 16.6594C3.97058 16.6281 3.39246 16.4875 2.87683 16.2844C2.34558 16.0812 1.90808 15.8156 1.47058 15.3781C1.03308 14.9406 0.767456 14.5031 0.564331 13.9719C0.361206 13.4562 0.220581 12.8781 0.189331 12.05C0.158081 11.2062 0.142456 10.9406 0.142456 8.78436C0.142456 6.62811 0.158081 6.36249 0.189331 5.51874C0.220581 4.69061 0.361206 4.11249 0.564331 3.59686C0.767456 3.06561 1.03308 2.62811 1.47058 2.19061C1.90808 1.75311 2.34558 1.48749 2.87683 1.28436C3.39246 1.08124 3.97058 0.940613 4.79871 0.909363C5.64246 0.878113 5.90808 0.862488 8.06433 0.862488ZM8.06433 1.89374C5.81433 1.89374 5.54871 1.90936 4.67371 1.94061C3.86121 1.97186 3.40808 2.12811 3.11121 2.23749C2.34558 2.54999 1.82996 3.06561 1.51746 3.83124C1.40808 4.12811 1.25183 4.58124 1.22058 5.39374C1.18933 6.26874 1.17371 6.53436 1.17371 8.78436C1.17371 11.0344 1.18933 11.3 1.22058 12.175C1.25183 12.9875 1.40808 13.4406 1.51746 13.7375C1.82996 14.5031 2.34558 15.0187 3.11121 15.3312C3.40808 15.4406 3.86121 15.5969 4.67371 15.6281C5.54871 15.6594 5.81433 15.675 8.06433 15.675C10.3143 15.675 10.58 15.6594 11.455 15.6281C12.2675 15.5969 12.7206 15.4406 13.0175 15.3312C13.7831 15.0187 14.2987 14.5031 14.6112 13.7375C14.7206 13.4406 14.8768 12.9875 14.9081 12.175C14.9393 11.3 14.955 11.0344 14.955 8.78436C14.955 6.53436 14.9393 6.26874 14.9081 5.39374C14.8768 4.58124 14.7206 4.12811 14.6112 3.83124C14.2987 3.06561 13.7831 2.54999 13.0175 2.23749C12.7206 2.12811 12.2675 1.97186 11.455 1.94061C10.58 1.90936 10.3143 1.89374 8.06433 1.89374ZM8.06433 11.9562C9.81433 11.9562 11.2362 10.5344 11.2362 8.78436C11.2362 7.03436 9.81433 5.61249 8.06433 5.61249C6.31433 5.61249 4.89246 7.03436 4.89246 8.78436C4.89246 10.5344 6.31433 11.9562 8.06433 11.9562ZM8.06433 4.72186C10.3143 4.72186 12.1268 6.53436 12.1268 8.78436C12.1268 11.0344 10.3143 12.8469 8.06433 12.8469C5.81433 12.8469 4.00183 11.0344 4.00183 8.78436C4.00183 6.53436 5.81433 4.72186 8.06433 4.72186ZM13.2518 4.56561C13.2518 5.09686 12.8143 5.50311 12.2831 5.50311C11.7518 5.50311 11.3456 5.09686 11.3456 4.56561C11.3456 4.03436 11.7518 3.59686 12.2831 3.59686C12.8143 3.59686 13.2518 4.03436 13.2518 4.56561Z" fill="#D6B782"/>
</svg>
