<svg width="12" height="12" viewBox="0 0 12 12" fill="none" xmlns="http://www.w3.org/2000/svg">
<path d="M5.73047 11.8008C5.76172 11.832 5.79297 11.8594 5.82422 11.8828C5.85547 11.9062 5.88281 11.9258 5.90625 11.9414C5.90625 11.9414 5.91016 11.9414 5.91797 11.9414C5.93359 11.957 5.95117 11.9668 5.9707 11.9707C5.99023 11.9746 6.01172 11.9766 6.03516 11.9766C6.05078 11.9766 6.06836 11.9746 6.08789 11.9707C6.10742 11.9668 6.12891 11.957 6.15234 11.9414C6.18359 11.9258 6.21289 11.9062 6.24023 11.8828C6.26758 11.8594 6.29688 11.832 6.32812 11.8008C6.32812 11.8008 6.51172 11.5859 6.87891 11.1562C7.24609 10.7266 7.6582 10.1719 8.11523 9.49219C8.57227 8.8125 9.00781 8.05078 9.42188 7.20703C9.83594 6.37109 10.0859 5.54297 10.1719 4.72266C10.1797 4.63672 10.1875 4.55078 10.1953 4.46484C10.2031 4.37891 10.207 4.29297 10.207 4.20703C10.207 3.62109 10.0977 3.07422 9.87891 2.56641C9.65234 2.05859 9.34961 1.61328 8.9707 1.23047C8.5918 0.847656 8.14844 0.546875 7.64062 0.328125C7.125 0.109375 6.57812 0 6 0C5.42188 0 4.875 0.109375 4.35938 0.328125C3.85156 0.546875 3.4082 0.847656 3.0293 1.23047C2.65039 1.61328 2.34766 2.05859 2.12109 2.56641C1.90234 3.07422 1.79297 3.62109 1.79297 4.20703C1.79297 4.29297 1.79687 4.37891 1.80469 4.46484C1.8125 4.55078 1.82031 4.63672 1.82812 4.72266C1.92188 5.54297 2.17578 6.375 2.58984 7.21875C3.01172 8.05469 3.45312 8.8125 3.91406 9.49219C4.375 10.1719 4.79297 10.7266 5.16797 11.1562C5.54297 11.5859 5.73047 11.8008 5.73047 11.8008ZM6 1.5C6.375 1.5 6.72656 1.57031 7.05469 1.71094C7.38281 1.85156 7.66797 2.04492 7.91016 2.29102C8.15234 2.53711 8.34766 2.82422 8.49609 3.15234C8.63672 3.48047 8.70703 3.83203 8.70703 4.20703C8.70703 4.57422 8.63672 4.92578 8.49609 5.26172C8.34766 5.58984 8.15234 5.875 7.91016 6.11719C7.66797 6.35938 7.38281 6.55078 7.05469 6.69141C6.72656 6.83984 6.375 6.91406 6 6.91406C5.625 6.91406 5.27344 6.83984 4.94531 6.69141C4.61719 6.55078 4.33203 6.35938 4.08984 6.11719C3.84766 5.875 3.65234 5.58984 3.50391 5.26172C3.36328 4.92578 3.29297 4.57422 3.29297 4.20703C3.29297 3.83203 3.36328 3.48047 3.50391 3.15234C3.65234 2.82422 3.84766 2.53711 4.08984 2.29102C4.33203 2.04492 4.61719 1.85156 4.94531 1.71094C5.27344 1.57031 5.625 1.5 6 1.5Z" fill="#C9C9CB"/>
</svg>
